<svg viewBox="0 0 44 44" width="44" height="44" xmlns="http://www.w3.org/2000/svg"><path d="m41.7 28.8c-1.6-6.6-10.9-5.8-19.7-5.8s-18.1-.8-19.7 5.8c-.5 1.9 2.7 1 8.7 5.6s8 7.6 11 7.6 4.5-2.6 11-7.6 9.2-3.7 8.7-5.6z" fill="#e6e6e6"/><path d="m42 28.8a19.8 19.8 0 0 0 -2.4-5.8c-.5-.9-.4-1.3-.1-2.5 2.4-9.3-.9-17.9-2.7-18.5s-6.2 4.9-9.7 9.7c-.7 1-1 1.1-2 .9l-3.1-.2-3.1.2c-1 .2-1.3.1-2-.9-3.5-4.8-8.1-10.1-9.7-9.7s-5.1 9.2-2.7 18.5c.3 1.2.4 1.6-.1 2.5a19.8 19.8 0 0 0 -2.4 5.8c-.4 1.9 4.6-1.1 10.9 3.2 4.7 3.3 6.1 8.9 9.1 8.9s4.4-5.6 9.1-8.9c6.3-4.3 11.3-1.3 10.9-3.2z" fill="#fd8c00"/><path d="m13.7 12.9c-1.6-3.1-4.8-7.2-5.7-6.9s-2.8 6.2-1.1 12.7c.3 1.2 2.4.6 6.3-2.3 1.4-1.1 1.3-2 .5-3.5z" fill="#c25a00"/><path d="m30.3 12.9c1.6-3.1 4.8-7.2 5.7-6.9s2.8 6.2 1.1 12.7c-.3 1.2-2.4.6-6.3-2.3-1.4-1.1-1.3-2-.5-3.5z" fill="#c25a00"/><g fill="#242436"><path d="m24.2 37.7a2.2 2.2 0 0 1 -2.3 2.1 2.3 2.3 0 0 1 -2.3-2.1 2.1 2.1 0 0 1 2.3-1.8c1.3 0 2.3.7 2.3 1.8z"/><ellipse cx="28" cy="26" rx="1.9" ry="2"/><ellipse cx="15.9" cy="26" rx="1.9" ry="2"/></g></svg>