<svg xmlns="http://www.w3.org/2000/svg" viewBox="0 0 24 24"><path d="M20.1,17.6A11.8,11.8,0,0,1,19,19.5a9.6,9.6,0,0,1-1.4,1.7,2.5,2.5,0,0,1-1.8.8,6.2,6.2,0,0,1-1.6-.4,4.2,4.2,0,0,0-1.8-.4,3.9,3.9,0,0,0-1.8.4A7.3,7.3,0,0,1,9,22a2.4,2.4,0,0,1-1.8-.8,6.6,6.6,0,0,1-1.4-1.7,10.1,10.1,0,0,1-1.6-3.1,11.3,11.3,0,0,1-.6-3.6,7.5,7.5,0,0,1,.8-3.5A4.7,4.7,0,0,1,6.3,7.5a4,4,0,0,1,2.4-.7,5.4,5.4,0,0,1,1.9.4l1.5.5,1.7-.5a5.6,5.6,0,0,1,2.3-.5,5.1,5.1,0,0,1,3.8,2,4.2,4.2,0,0,0-2.2,3.9A4.4,4.4,0,0,0,19,15.8l1.4.9-.3.9ZM16.2,2.4a4.5,4.5,0,0,1-1.1,2.8A3.7,3.7,0,0,1,12,6.7V6.3a4.3,4.3,0,0,1,1.2-2.8,3,3,0,0,1,1.4-1A3.3,3.3,0,0,1,16.2,2v.4Z"/></svg>