<svg xmlns="http://www.w3.org/2000/svg" viewBox="0 0 24 24"><path d="M4.9,3.5A1,1,0,0,0,3.5,4.9L6.6,8H4a2,2,0,0,0-2,2v4a2,2,0,0,0,2,2H7l4.7,4.5a1.3,1.3,0,0,0,2.3-.9V15.4l5.1,5.1a1,1,0,0,0,1.4-1.4Z"/><path d="M14,4.3a1.4,1.4,0,0,0-2.3-1L9.6,5.4,14,9.8Z"/><path d="M16.5,12v.2l1.6,1.7a4.1,4.1,0,0,0,.4-1.9,5.3,5.3,0,0,0-1.9-4.1,1,1,0,1,0-1.3,1.5A3.4,3.4,0,0,1,16.5,12Z"/><path d="M20,12a7.3,7.3,0,0,1-.7,3l1.5,1.5A8.7,8.7,0,0,0,22,12a8.9,8.9,0,0,0-3-6.7.9.9,0,0,0-1.4.1,1,1,0,0,0,0,1.4A6.9,6.9,0,0,1,20,12Z"/></svg>