<svg xmlns="http://www.w3.org/2000/svg" viewBox="0 0 24 24"><path d="M19.1,9.1a13.2,13.2,0,0,0-5.3.4c-.4.2-.7.6-.5,1a.8.8,0,0,0,.7.5h.2a10.4,10.4,0,0,1,4.7-.4,1,1,0,0,0,.9-.7A.8.8,0,0,0,19.1,9.1Z"/><path d="M19.1,11.8a11.6,11.6,0,0,0-5.3.4c-.4.1-.7.6-.5.9a.7.7,0,0,0,.7.6h.2a14.2,14.2,0,0,1,4.7-.4.8.8,0,0,0,.9-.6A.8.8,0,0,0,19.1,11.8Z"/><path d="M19.1,14.4a13.2,13.2,0,0,0-5.3.5.7.7,0,0,0-.5.9.8.8,0,0,0,.7.5h.2a12,12,0,0,1,4.7-.4.8.8,0,0,0,.9-.7A.8.8,0,0,0,19.1,14.4Z"/><path d="M10.2,9.5a13.2,13.2,0,0,0-5.3-.4.8.8,0,0,0-.7.8.8.8,0,0,0,.8.7,10.8,10.8,0,0,1,4.8.4H10a.8.8,0,0,0,.7-.5A.9.9,0,0,0,10.2,9.5Z"/><path d="M10.2,12.2a11.6,11.6,0,0,0-5.3-.4.8.8,0,0,0-.7.8c.1.4.4.7.8.6a14.9,14.9,0,0,1,4.8.4H10a.7.7,0,0,0,.7-.6A.8.8,0,0,0,10.2,12.2Z"/><path d="M10.2,14.9a13.2,13.2,0,0,0-5.3-.5.8.8,0,0,0-.7.8c.1.5.4.8.8.7a12.5,12.5,0,0,1,4.8.4H10a.8.8,0,0,0,.7-.5A.7.7,0,0,0,10.2,14.9Z"/><path d="M21.8,5.3a10.3,10.3,0,0,0-4.3-.8A9.3,9.3,0,0,0,12,6h0A9.5,9.5,0,0,0,6.5,4.5a10.3,10.3,0,0,0-4.3.8A2,2,0,0,0,1,7.1V18.4a2,2,0,0,0,2.5,2,10.3,10.3,0,0,1,3-.4,11.8,11.8,0,0,1,4.6.9,1.6,1.6,0,0,0,.9.3h0a1.5,1.5,0,0,0,.9-.2,10.2,10.2,0,0,1,4.6-.9,10.3,10.3,0,0,1,3,.4,2,2,0,0,0,2.5-2V7.1A2,2,0,0,0,21.8,5.3ZM21,17.2a1,1,0,0,1-1.2,1L17.5,18A12.5,12.5,0,0,0,12,19.5h0A12.9,12.9,0,0,0,6.5,18l-2.3.2a1,1,0,0,1-1.2-1V7.8a1,1,0,0,1,.8-1,12.4,12.4,0,0,1,2.7-.3A12.9,12.9,0,0,1,12,8h0a11.3,11.3,0,0,1,5.5-1.5,12.4,12.4,0,0,1,2.7.3,1,1,0,0,1,.8,1Z"/></svg>