<svg viewBox="0 0 24 24" xmlns="http://www.w3.org/2000/svg"><path d="m19 3h-14a2 2 0 0 0 -2 2v14a2 2 0 0 0 2 2h14a2 2 0 0 0 2-2v-14a2 2 0 0 0 -2-2zm-5.4 3.5a.7.7 0 0 1 1 0l.9.9.9-.9a.7.7 0 0 1 1 0 .8.8 0 0 1 0 1.1l-.8.9.8.9a.7.7 0 0 1 0 1 .7.7 0 0 1 -1 0l-.9-.9-.9.9a.7.7 0 0 1 -1 0 .7.7 0 0 1 0-1l.8-.9-.8-.9a.8.8 0 0 1 0-1.1zm-6.6 1.2h3.5a.8.8 0 0 1 .7.8.7.7 0 0 1 -.7.7h-3.5a.8.8 0 0 1 -.8-.7.9.9 0 0 1 .8-.8zm3.8 8.3h-1.3v1.2a.7.7 0 0 1 -.7.8.7.7 0 0 1 -.8-.8v-1.2h-1.2a.7.7 0 0 1 -.8-.8.7.7 0 0 1 .8-.7h1.2v-1.3a.7.7 0 0 1 .8-.7.7.7 0 0 1 .7.7v1.3h1.3a.7.7 0 0 1 .7.7.7.7 0 0 1 -.7.8zm6.4 1.2h-3.4a.7.7 0 0 1 -.8-.7.7.7 0 0 1 .8-.7h3.4a.7.7 0 0 1 .8.7.7.7 0 0 1 -.8.7zm0-2.4h-3.4a.8.8 0 0 1 -.8-.8.8.8 0 0 1 .8-.8h3.4a.8.8 0 0 1 .8.8.8.8 0 0 1 -.8.8z"/></svg>