<svg viewBox="0 0 24 24" xmlns="http://www.w3.org/2000/svg"><path d="m13.4 15.5 4.4 4.4a1.5 1.5 0 0 0 2.1 0 1.4 1.4 0 0 0 0-2.1l-4.4-4.4z"/><path d="m16.3 9.8a3.6 3.6 0 0 0 3.1-.4 3.1 3.1 0 0 0 1.5-2.3 2.7 2.7 0 0 0 -.2-2l-2.4 2.4-1.8-1.8 2.4-2.4a3.4 3.4 0 0 0 -2-.3 3.5 3.5 0 0 0 -2.3 1.6 3.6 3.6 0 0 0 -.4 3.1l-2.2 2.2-1.7-1.7a1 1 0 0 0 0-1.4l-.5-.6 2.3-2.3a3.5 3.5 0 0 0 -2.3-.9 3.1 3.1 0 0 0 -2.2.9l-2.9 2.9a1 1 0 0 0 0 1.4l.5.5h-1.7l-.5.2a.7.7 0 0 0 0 1l2 2a.7.7 0 0 0 1 0 .8.8 0 0 0 .2-.5v-1.7l.6.5a1 1 0 0 0 1.4 0l1.7 1.8-5.8 5.8a1.4 1.4 0 0 0 0 2.1 1.4 1.4 0 0 0 2.1 0l5.4-5.3z"/></svg>