<svg xmlns="http://www.w3.org/2000/svg" viewBox="0 0 24 24"><path d="M11,14a6,6,0,0,1,10.7-3.7,6.4,6.4,0,0,0,.3-2A5.6,5.6,0,0,0,19.7,4,5.8,5.8,0,0,0,12,5.1,5.8,5.8,0,0,0,4.3,4,5.6,5.6,0,0,0,2,8.3c-.1,3.9,3.3,7,8.5,11.7h.2a1.9,1.9,0,0,0,2.6,0h.2a4.6,4.6,0,0,0,.7-.7A6,6,0,0,1,11,14Z"/><path d="M17,9a5,5,0,1,0,5,5A5,5,0,0,0,17,9Zm.7,8v.3a.7.7,0,0,1-.7.7h0a.7.7,0,0,1-.6-.7V17a1.8,1.8,0,0,1-1.5-1.1c-.2-.3.1-.6.4-.6h.1c.2,0,.3.2.4.3s.5.7,1.2.7,1.2-.5,1.2-.8-.2-.8-1.3-1.1-2.1-.8-2.1-1.8.7-1.4,1.6-1.6v-.3A.7.7,0,0,1,17,10h0a.7.7,0,0,1,.7.7V11A1.7,1.7,0,0,1,19,12.1a.4.4,0,0,1-.4.6h-.1c-.2,0-.3-.2-.4-.3s-.4-.7-1.1-.7-1.2.4-1.2.9.4.7,1.4.9,2.1.7,2.1,2S18.6,16.9,17.7,17Z"/></svg>