<svg xmlns="http://www.w3.org/2000/svg" viewBox="0 0 24 24"><path d="M7,14.4,4.9,10.1C4.6,9.5,5,9,5.7,9H6.8a1,1,0,0,1,1,.6L8.7,12l.2.7H9l.5-.7,1.8-2.4A1.3,1.3,0,0,1,12.4,9h1.1c.8,0,.9.5.4,1.1l-3.6,4.3,2.2,4.5a.8.8,0,0,1-.8,1.1H10.6a.8.8,0,0,1-.9-.6L8.6,16.8a3.9,3.9,0,0,1-.2-.6H8.3a2.9,2.9,0,0,1-.4.6l-2,2.6a1.4,1.4,0,0,1-1.2.6h-1c-.7,0-.9-.5-.4-1.1Z"/><path d="M15.5,10.2c0-3,3.4-3.5,3.4-4.6a.8.8,0,0,0-.9-.8,1.2,1.2,0,0,0-.8.4c-.3.3-.6.4-.9.1L15.9,5c-.3-.3-.4-.5-.2-.8A3.1,3.1,0,0,1,18.2,3a2.4,2.4,0,0,1,2.7,2.4c0,2.5-3.2,2.9-3.3,3.9h2.8c.4,0,.6.3.6.7v.4a.5.5,0,0,1-.6.6H16.1a.5.5,0,0,1-.6-.6Z"/></svg>