<svg xmlns="http://www.w3.org/2000/svg" viewBox="0 0 24 24"><path d="M22.6,10.7A11.7,11.7,0,0,0,12,4a12.2,12.2,0,0,0-4.3.8l2.5,2.6A3.9,3.9,0,0,1,12,7a4.5,4.5,0,0,1,4.5,4.5,3.9,3.9,0,0,1-.4,1.8l3.2,3.2a12.1,12.1,0,0,0,3.3-4.2A1.5,1.5,0,0,0,22.6,10.7Z"/><path d="M12,8.8h-.3l3,3v-.3A2.7,2.7,0,0,0,12,8.8Z"/><path d="M3.5,3.5a1,1,0,0,0-1.4,0h0a1,1,0,0,0,0,1.4L4.2,7a10.1,10.1,0,0,0-2.8,3.7,1.5,1.5,0,0,0,0,1.6A11.7,11.7,0,0,0,12,19a10.5,10.5,0,0,0,3.6-.6l3.5,3.5a1,1,0,0,0,1.4-1.4ZM12,16a4.5,4.5,0,0,1-4.5-4.5c0-.4.1-.7.1-1l1.8,1.7a3.1,3.1,0,0,0,1.8,1.9L13,15.9Z"/></svg>