<svg viewBox="0 0 24 24" xmlns="http://www.w3.org/2000/svg"><path d="m15.9 3.8 1.4 1.5-2.2 2.2a1 1 0 0 0 0 1.4 1 1 0 0 0 1.4 0l2.2-2.2 1.5 1.4a.4.4 0 0 0 .8-.3v-4.3a.5.5 0 0 0 -.5-.5h-4.3a.4.4 0 0 0 -.3.8zm-12.1 4.3 1.5-1.4 2.2 2.2a1 1 0 0 0 1.4 0 1 1 0 0 0 0-1.4l-2.2-2.2 1.4-1.4a.5.5 0 0 0 -.3-.9h-4.3a.5.5 0 0 0 -.5.5v4.3a.4.4 0 0 0 .8.3zm4.3 12-1.4-1.4 2.2-2.2a1 1 0 0 0 0-1.4 1 1 0 0 0 -1.4 0l-2.2 2.2-1.4-1.5a.6.6 0 0 0 -.9.4v4.3a.5.5 0 0 0 .5.5h4.3a.5.5 0 0 0 .3-.9zm12-4.2-1.4 1.4-2.2-2.2a1 1 0 0 0 -1.4 0 1 1 0 0 0 0 1.4l2.2 2.2-1.4 1.4a.5.5 0 0 0 .3.9h4.3a.5.5 0 0 0 .5-.5v-4.3a.5.5 0 0 0 -.9-.3z"/></svg>