<svg viewBox="0 0 24 24" xmlns="http://www.w3.org/2000/svg"><path d="m20.1 8.2-1.4-1.5 2.2-2.2a1 1 0 0 0 0-1.4 1 1 0 0 0 -1.4 0l-2.2 2.2-1.5-1.4a.4.4 0 0 0 -.8.3v4.3a.5.5 0 0 0 .5.5h4.3a.4.4 0 0 0 .3-.8z"/><path d="m8.2 3.9-1.5 1.4-2.2-2.2a1 1 0 0 0 -1.4 0 1 1 0 0 0 0 1.4l2.2 2.2-1.4 1.4a.5.5 0 0 0 .3.9h4.3a.5.5 0 0 0 .5-.5v-4.3a.4.4 0 0 0 -.8-.3z"/><path d="m3.9 15.9 1.4 1.4-2.2 2.2a1 1 0 0 0 0 1.4 1 1 0 0 0 1.4 0l2.2-2.2 1.4 1.5a.6.6 0 0 0 .9-.4v-4.3a.5.5 0 0 0 -.5-.5h-4.3a.5.5 0 0 0 -.3.9z"/><path d="m15.9 20.1 1.4-1.4 2.2 2.2a1 1 0 0 0 1.4 0 1 1 0 0 0 0-1.4l-2.2-2.2 1.4-1.4a.5.5 0 0 0 -.3-.9h-4.3a.5.5 0 0 0 -.5.5v4.3a.5.5 0 0 0 .9.3z"/></svg>