<svg xmlns="http://www.w3.org/2000/svg" viewBox="0 0 24 24"><path d="M12,2A10,10,0,0,0,8.8,21.5c.5.1.7-.2.7-.5V19.1C6.7,19.8,6.1,18,6.1,18A2.4,2.4,0,0,0,5,16.5c-.9-.6.1-.6.1-.6a2.1,2.1,0,0,1,1.5,1,2.1,2.1,0,0,0,2.9.9,2.3,2.3,0,0,1,.7-1.4c-2.2-.2-4.6-1.1-4.6-4.9a4.1,4.1,0,0,1,1-2.7,4.1,4.1,0,0,1,.1-2.7s.9-.2,2.8,1.1A10.1,10.1,0,0,1,12,6.8a10.9,10.9,0,0,1,2.5.4c1.9-1.3,2.8-1.1,2.8-1.1a4.1,4.1,0,0,1,.1,2.7,4.1,4.1,0,0,1,1,2.7c0,3.8-2.4,4.7-4.6,4.9a2.3,2.3,0,0,1,.7,1.9V21c0,.3.2.6.7.5A10,10,0,0,0,12,2Z"/></svg>