<svg xmlns="http://www.w3.org/2000/svg" viewBox="0 0 24 24"><path d="M21.1,12.2a5.8,5.8,0,0,0-.2-1.9H12v3.6h5.1a4.4,4.4,0,0,1-1.9,2.9v2.4h3.1a9.3,9.3,0,0,0,2.8-7Z" fill="#2786fb"/><path d="M12,21.5a9.3,9.3,0,0,0,6.3-2.3l-3.1-2.4a5.3,5.3,0,0,1-3.2.9,5.5,5.5,0,0,1-5.3-3.9H3.5v2.5A9.5,9.5,0,0,0,12,21.5Z" fill="#00aa47"/><path d="M6.7,13.8a5.6,5.6,0,0,1,0-3.6V7.7H3.5a10.4,10.4,0,0,0-1,4.3,10.4,10.4,0,0,0,1,4.3l3.2-2.5Z" fill="#ffb800"/><path d="M12,6.3a5.2,5.2,0,0,1,3.6,1.4L18.4,5A9,9,0,0,0,12,2.5,9.5,9.5,0,0,0,3.5,7.7l3.2,2.5A5.5,5.5,0,0,1,12,6.3Z" fill="#fc2b25"/></svg>