<svg viewBox="0 0 24 24" xmlns="http://www.w3.org/2000/svg"><path d="m0 0h24v24h-24z" fill="none"/><path d="m0 0h24v24h-24z" fill="none"/><path d="m16.67 13.13a4.6509 4.6509 0 0 1 2.33 3.87v3h3a1.0029 1.0029 0 0 0 1-1v-2c0-2.18-3.57-3.47-6.33-3.87z" fill-rule="evenodd"/><circle cx="9" cy="8" r="4"/><g fill-rule="evenodd"><path d="m15 12a4 4 0 0 0 0-8 4.1782 4.1782 0 0 0 -1.33.24 5.98 5.98 0 0 1 0 7.52 4.1782 4.1782 0 0 0 1.33.24z"/><path d="m9 13c-2.67 0-8 1.34-8 4v2a1.0029 1.0029 0 0 0 1 1h14a1.0029 1.0029 0 0 0 1-1v-2c0-2.66-5.33-4-8-4z"/></g></svg>