<svg xmlns="http://www.w3.org/2000/svg" viewBox="0 0 24 24"><path d="M12,4.2h3.8c2.6.1,3.8,1.3,3.9,3.9a31.6,31.6,0,0,1,.1,3.8,31.6,31.6,0,0,1-.1,3.8c-.1,2.6-1.3,3.8-3.9,3.9H8.2c-2.6-.1-3.8-1.3-3.9-3.9A31.6,31.6,0,0,1,4.2,12a31.6,31.6,0,0,1,.1-3.8c.1-2.6,1.3-3.8,3.9-3.9Zm0-1.7H8.1c-3.5.1-5.4,2-5.5,5.5A32.6,32.6,0,0,0,2.5,12a32.6,32.6,0,0,0,.1,3.9c.1,3.5,2,5.4,5.5,5.5h7.8c3.5-.1,5.4-2,5.5-5.5a32.6,32.6,0,0,0,.1-3.9,32.6,32.6,0,0,0-.1-3.9c-.1-3.5-2-5.4-5.5-5.5Zm0,4.6A4.9,4.9,0,1,0,16.9,12,4.9,4.9,0,0,0,12,7.1Zm0,8.1A3.3,3.3,0,0,1,8.8,12,3.3,3.3,0,0,1,12,8.8,3.3,3.3,0,0,1,15.2,12,3.3,3.3,0,0,1,12,15.2Zm5.1-9.4a1.1,1.1,0,0,0-1.2,1.1,1.2,1.2,0,0,0,1.2,1.2,1.1,1.1,0,0,0,1.1-1.2A1.1,1.1,0,0,0,17.1,5.8Z"/></svg>