<svg xmlns="http://www.w3.org/2000/svg" viewBox="0 0 24 24"><path d="M12,2A10,10,0,1,0,22,12,10,10,0,0,0,12,2Zm6.9,6H16a17.8,17.8,0,0,0-1.4-3.6A8,8,0,0,1,18.9,8ZM12,4a14.7,14.7,0,0,1,1.9,4H10.1A14.7,14.7,0,0,1,12,4ZM4.3,14a6.8,6.8,0,0,1,0-4H7.6c0,.7-.1,1.3-.1,2s.1,1.3.1,2Zm.8,2H8a15.8,15.8,0,0,0,1.4,3.6A8,8,0,0,1,5.1,16ZM8,8H5.1A8,8,0,0,1,9.4,4.4,26.7,26.7,0,0,0,8,8Zm4,12a14.7,14.7,0,0,1-1.9-4h3.8A14.7,14.7,0,0,1,12,20Zm2.3-6H9.7a13.6,13.6,0,0,1-.2-2,12.3,12.3,0,0,1,.2-2h4.6a12.3,12.3,0,0,1,.2,2A13.6,13.6,0,0,1,14.3,14Zm.3,5.6A26.7,26.7,0,0,0,16,16h2.9A8.5,8.5,0,0,1,14.6,19.6ZM16.4,14c0-.7.1-1.3.1-2s-.1-1.3-.1-2h3.3a6.8,6.8,0,0,1,0,4Z"/></svg>