<svg xmlns="http://www.w3.org/2000/svg" viewBox="0 0 24 24"><path d="M8.2,3.3l-3-.5A1,1,0,0,0,4,3.6H4L.9,21.3a1,1,0,0,0,.8,1.2h0l3,.5a1,1,0,0,0,1.2-.8h0L9,4.4A1,1,0,0,0,8.2,3.3Zm-2,11.3a.4.4,0,0,1-.6.4h0l-2-.3a.4.4,0,0,1-.4-.6h0L4.6,6.2a.4.4,0,0,1,.6-.4h0l2,.3a.4.4,0,0,1,.4.6h0ZM17,19h6v1H17Zm0-9h6v8H17Zm0,11h6v1a.9.9,0,0,1-1,1H18a.9.9,0,0,1-1-1ZM17,8h6V9H17Zm6-2V7H17V6a.9.9,0,0,1,1-1h4A.9.9,0,0,1,23,6ZM10,21h6v1a.9.9,0,0,1-1,1H11a.9.9,0,0,1-1-1ZM16,2V3H10V2a.9.9,0,0,1,1-1h4A.9.9,0,0,1,16,2ZM10,5h6V19H10Z"/></svg>