<svg xmlns="http://www.w3.org/2000/svg" viewBox="0 0 24 24"><path d="M12,2A10,10,0,0,0,2,12a9.9,9.9,0,0,0,6.4,9.3,9.4,9.4,0,0,1,0-2.9c.2-.7,1.2-4.9,1.2-4.9A3.6,3.6,0,0,1,9.3,12c0-1.4.8-2.4,1.8-2.4s1.2.6,1.2,1.4a19.3,19.3,0,0,1-.8,3.3A1.5,1.5,0,0,0,13,16.1c1.8,0,3.1-1.9,3.1-4.6a3.9,3.9,0,0,0-4.1-4,4.3,4.3,0,0,0-4.6,4.3,4,4,0,0,0,.8,2.3.4.4,0,0,1,.1.3L8,15.5c-.1.2-.2.2-.4.1s-2-2.4-2-3.8c0-3.2,2.3-6.1,6.6-6.1a5.9,5.9,0,0,1,6.2,5.8c0,3.4-2.2,6.2-5.2,6.2a2.7,2.7,0,0,1-2.3-1.1l-.6,2.3A11.3,11.3,0,0,1,9,21.6a15.4,15.4,0,0,0,3,.4A10,10,0,0,0,12,2Z"/></svg>