<svg xmlns="http://www.w3.org/2000/svg" viewBox="0 0 24 24"><path d="M22,11.8a2.2,2.2,0,0,0-2.2-2.2,2,2,0,0,0-1.5.6,12,12,0,0,0-5.9-1.7l1.3-3.9,3.3.8h0a1.8,1.8,0,1,0,1.8-1.8,1.8,1.8,0,0,0-1.7,1.1L13.5,4c-.1-.1-.3,0-.3.2L11.8,8.5a11.5,11.5,0,0,0-6.1,1.7,2,2,0,0,0-1.5-.6A2.2,2.2,0,0,0,2,11.8a2.1,2.1,0,0,0,1.1,1.9c0,.2-.1.5-.1.7,0,3.3,4,5.9,9,5.9s8.9-2.6,8.9-5.9a2,2,0,0,0-.1-.7A2,2,0,0,0,22,11.8ZM7.6,13.3A1.3,1.3,0,0,1,9,12a1.3,1.3,0,0,1,1.3,1.3A1.3,1.3,0,0,1,9,14.6,1.3,1.3,0,0,1,7.6,13.3Zm7.6,3.9a4.2,4.2,0,0,1-3.2,1h0a4.2,4.2,0,0,1-3.2-1,.3.3,0,0,1,.4-.4,4.3,4.3,0,0,0,2.8.8h0a4.3,4.3,0,0,0,2.8-.8.3.3,0,0,1,.4.4ZM15,14.6a1.3,1.3,0,0,1-1.3-1.3A1.3,1.3,0,0,1,15,12a1.3,1.3,0,0,1,1.4,1.3A1.3,1.3,0,0,1,15,14.6Z"/></svg>