<svg xmlns="http://www.w3.org/2000/svg" viewBox="0 0 24 24"><path d="M19.5,12v-.7l1.8-1.4a1.1,1.1,0,0,0,.3-1.3L19.7,5.4A.9.9,0,0,0,18.5,5l-2.2.9-1.2-.7-.2-2.3a1.1,1.1,0,0,0-1-.9H10.1a1.1,1.1,0,0,0-1,.9L8.9,5.2l-1.2.7L5.5,5a.9.9,0,0,0-1.2.4L2.4,8.6a1.1,1.1,0,0,0,.3,1.3l1.8,1.4v1.4L2.7,14.1a1.1,1.1,0,0,0-.3,1.3l1.9,3.2a.9.9,0,0,0,1.2.4l2.2-.9,1.2.7.2,2.3a1.1,1.1,0,0,0,1,.9h3.8a1.1,1.1,0,0,0,1-.9l.2-2.3,1.2-.7,2.2.9a.9.9,0,0,0,1.2-.4l1.9-3.2a1.1,1.1,0,0,0-.3-1.3l-1.8-1.4ZM12,15.5a3.5,3.5,0,0,1,0-7,3.5,3.5,0,0,1,0,7Z"/></svg>