<svg xmlns="http://www.w3.org/2000/svg" viewBox="0 0 24 24"><path d="M12,12.8a10.5,10.5,0,0,1,4.2.8A3.1,3.1,0,0,1,18,16.4V17a1.1,1.1,0,0,1-1,1H7a1,1,0,0,1-1-1v-.6a2.8,2.8,0,0,1,1.8-2.7A9,9,0,0,1,12,12.8ZM4,13a2,2,0,1,0-2-2A2,2,0,0,0,4,13Zm1.1,1.1H4a6.7,6.7,0,0,0-2.8.6A2,2,0,0,0,0,16.4V17a1,1,0,0,0,1,1H4.5V16.4A4.6,4.6,0,0,1,5.1,14.1ZM20,13a2,2,0,1,0-2-2A2,2,0,0,0,20,13Zm4,3.4a2,2,0,0,0-1.2-1.8A6.7,6.7,0,0,0,20,14H18.9a4.6,4.6,0,0,1,.6,2.3V18H23a1.1,1.1,0,0,0,1-1ZM12,6a2.9,2.9,0,0,1,3,3A3,3,0,0,1,9,9,2.9,2.9,0,0,1,12,6Z"/></svg>