<svg xmlns="http://www.w3.org/2000/svg" viewBox="0 0 24 24"><path d="M5.8,5.2c.1-.5.4-.7,1-.7H8.1a.9.9,0,0,1,1,.7l4.7,13.3a.7.7,0,0,1-.7,1h-1a1,1,0,0,1-1-.7L10,15.7H4.8l-1,3.1a1,1,0,0,1-1,.7h-1c-.7,0-.9-.4-.7-1Zm3.6,8.2L8,9.4c-.2-.8-.5-2.3-.5-2.3H7.4a19.8,19.8,0,0,1-.6,2.3l-1.3,4Z"/><path d="M20.2,13.6h.4v-.2c0-1.3-.8-1.7-1.8-1.7a4.3,4.3,0,0,0-1.9.5c-.5.2-.9.1-1.1-.3l-.2-.4a.7.7,0,0,1,.3-1A6.9,6.9,0,0,1,19,9.7c2.5,0,4,1.4,4,3.8v5.2a.7.7,0,0,1-.8.8h-.6a.7.7,0,0,1-.8-.8v-.8h0a3.5,3.5,0,0,1-3,1.8,3,3,0,0,1-3.2-2.9C14.6,14,18.1,13.6,20.2,13.6Zm-1.8,4.3a2.4,2.4,0,0,0,2.2-2.5V15h-.4c-1.2,0-3.2.2-3.2,1.6A1.3,1.3,0,0,0,18.4,17.9Z"/></svg>