<svg xmlns="http://www.w3.org/2000/svg" viewBox="0 0 24 24"><path d="M10.5,8.5V6a.9.9,0,0,0-1-1,.9.9,0,0,0-1,1V8.5H6a.9.9,0,0,0-1,1,.9.9,0,0,0,1,1H8.5V13a.9.9,0,0,0,1,1,.9.9,0,0,0,1-1V10.5H13a.9.9,0,0,0,1-1,.9.9,0,0,0-1-1Z"/><path d="M21.6,19.4l-4-4a1.6,1.6,0,0,0-1.5-.3l-.8-.9A7,7,0,0,0,17,9.5,7.6,7.6,0,0,0,9.5,2,7.6,7.6,0,0,0,2,9.5,7.6,7.6,0,0,0,9.5,17a7,7,0,0,0,4.7-1.7l.9.8a1.6,1.6,0,0,0,.3,1.5l4,4a1.7,1.7,0,0,0,2.2,0A1.8,1.8,0,0,0,21.6,19.4ZM9.5,15A5.5,5.5,0,0,1,4,9.5,5.5,5.5,0,0,1,9.5,4,5.5,5.5,0,0,1,15,9.5,5.5,5.5,0,0,1,9.5,15Z"/></svg>