<svg viewBox="0 0 100 100" xmlns="http://www.w3.org/2000/svg"><path d="m73 25.6h-10.2a6 6 0 0 0 -11.8 0h-11.3a6 6 0 0 0 -11.8 0h-1.1v2.4h1.2a6 6 0 0 0 11.8 0h11.2a6 6 0 0 0 11.8 0h10.2zm-17.1-3.1a1.9 1.9 0 1 1 0 3.8c-2.4 0-2.4-3.8 0-3.8zm-23.2 0a1.9 1.9 0 1 1 0 3.8c-2.4 0-2.4-3.8 0-3.8z" fill-rule="evenodd"/><path d="m20.6 13.6c0-2.7 4.2-2.7 4.2 0v71.2h50.7v-71.2c0-2.7 4.2-2.7 4.2 0v71.2h7a1.7 1.7 0 0 1 1.7 1.8 1.7 1.7 0 0 1 -1.7 1.8h-73.4a1.7 1.7 0 0 1 -1.7-1.8 1.7 1.7 0 0 1 1.7-1.8h7.3c0-29.3 0-50.8 0-71.2z" fill-rule="evenodd"/><path d="m16.6 63.3h5.1v2.39h-5.1z"/><path d="m78.4 63.3h5.1v2.39h-5.1z"/><path d="m16.6 44.1h5.1v2.39h-5.1z"/><path d="m78.4 44.1h5.1v2.39h-5.1z"/><path d="m16.6 25.6h5.1v2.39h-5.1z"/><path d="m78.4 25.6h5.1v2.39h-5.1z"/><g fill-rule="evenodd"><path d="m73 44.1h-1.5a6.1 6.1 0 0 0 -5.9-4.8 6 6 0 0 0 -5.7 4.1 6 6 0 0 0 -11.4 0 6 6 0 0 0 -5.7-4.1 6.1 6.1 0 0 0 -5.9 4.8h-10.1v2.4h10.1a6 6 0 0 0 11.6.6 6 6 0 0 0 11.4 0 6 6 0 0 0 11.6-.6h1.5zm-30.9-3.2c2.4 0 2.4 3.8 0 3.8a1.9 1.9 0 1 1 0-3.8zm10.9 0c2.4 0 2.4 3.8 0 3.8a1.9 1.9 0 1 1 -.1-3.8zm11.5 0c2.4 0 2.4 3.8 0 3.8a1.9 1.9 0 1 1 -.1-3.8z"/><path d="m73 63.3h-1.5a6.1 6.1 0 0 0 -5.9-4.8 6 6 0 0 0 -5.7 4.1 6 6 0 0 0 -5.7-4 6.1 6.1 0 0 0 -5.9 4.8h-8.6a6 6 0 0 0 -11.8 0h-1.1v2.4h1.2a6 6 0 0 0 11.8 0h8.6a6 6 0 0 0 5.9 4.7 6 6 0 0 0 5.7-4.1 6 6 0 0 0 5.7 4.1 6 6 0 0 0 5.9-4.7h1.4zm-39.9-3.3c2.4 0 2.4 3.8 0 3.8a1.9 1.9 0 1 1 0-3.8zm20.3 0c2.4 0 2.4 3.8 0 3.8a1.9 1.9 0 1 1 -.1-3.8zm11.3 0c2.4 0 2.4 3.8 0 3.8a1.9 1.9 0 1 1 -.1-3.8z"/></g></svg>