<svg viewBox="0 0 100 100" xmlns="http://www.w3.org/2000/svg"><g fill-rule="evenodd"><path d="m75.7 18.8 5.5 5.5a5.7 5.7 0 0 1 0 8.1l-45 45a1.8 1.8 0 0 1 -.8.5l-15.9 5a1.8 1.8 0 0 1 -2.2-2.3l4.9-16a1.8 1.8 0 0 1 .4-.7l45-45a5.7 5.7 0 0 1 8.1 0zm-52.9 55.8 2.6 2.6 8.6-2.7 34.4-34.4-1.7-1.7-33 33a1.2 1.2 0 0 1 -1.7-1.7l33-33-1.7-1.7-33 33a1.2 1.2 0 0 1 -1.7-1.7l33-33-1.7-1.7-34.4 34.4zm55.9-47.7-5.5-5.5a2.1 2.1 0 0 0 -3 0l-5.2 5.1 8.5 8.5 5.1-5.1a2.1 2.1 0 0 0 0-3zm-15.4 1.3-1.7 1.7 8.5 8.5 1.7-1.7z"/><path d="m15.9 27.5 11.6-11.6a1.8 1.8 0 0 1 2.5 0l17.7 17.7-6 6a.9.9 0 0 1 -1-1.5l3.2-3.2-2-2-1.7 1.7a.9.9 0 1 1 -1.2-1.3l1.7-1.7-2-2-3.2 3.2a.9.9 0 1 1 -1.3-1.3l3.2-3.2-2-2-1.7 1.7a.9.9 0 1 1 -1.3-1.3l1.7-1.7-2-2-3.2 3.2a.9.9 0 0 1 -1.3-1.2l3.2-3.2-2-2-9 9 16.4 16.3-2.5 2.5-17.8-17.6a1.8 1.8 0 0 1 0-2.5zm50.5 24.8 17.7 17.7a1.8 1.8 0 0 1 0 2.5l-11.6 11.6a1.8 1.8 0 0 1 -2.5 0l-17.7-17.7 2.5-2.5 16.5 16.3 9-9-2.3-2.1-3.2 3.2a.9.9 0 0 1 -1.2-1.3l3.2-3.2-2-2-1.7 1.7a.9.9 0 0 1 -1.3-1.3l1.7-1.7-2-2-3.2 3.2a.9.9 0 0 1 -1.3-1.3l3.2-3.2-2-2-1.7 1.7a.9.9 0 0 1 -1.3-1.3l1.7-1.7-2-2-3.2 3.2a.9.9 0 0 1 -1.5-.6z"/></g></svg>